# xmcd database file
#
# Track frame offsets:
# 150
# 23400
# 35990
# 49807
# 67947
# 76442
# 96510
# 107547
# 129412
# 140572
#
# Disc length: 2030 seconds
#
# Revision: 1
# Processed by: cddbd v1.5PL3 Copyright (c) Steve Scherf et al.
# Submitted via: CD-Runner 2004.04
#
DISCID=8407ec0a
DTITLE=Various Artist - Late Night Blues
DYEAR=2000
DGENRE=Blues
TTITLE0=Last Night
TTITLE1=Hobo Blues
TTITLE2=Where Did You Sleep Last Night
TTITLE3=Boogie Woogie Papa
TTITLE4=Baby, Please Don't Go
TTITLE5=Nothin' From Nothin' Blues
TTITLE6=Big Fine Woman
TTITLE7=Awful Dreams
TTITLE8=Sinking Blues
TTITLE9=Blue Tail Fly
EXTD=
EXTT0=Lightnin' Hopkins
EXTT1=John Lee Hooker
EXTT2=LeadBelly
EXTT3=Gatemouth Moore
EXTT4=Joe Williams
EXTT5=Big Joe Turner
EXTT6=John Lee Hooker
EXTT7=Lightnin' Hopkins
EXTT8=Joe Williams
EXTT9=Leadbelly
PLAYORDER=
